PathFileType	4	(X/Y/Z)	D:\TRACE\spotREDO_2-26-24\spot_Both_Motion_3_9-v60.trc
DataRate	CameraRate	NumFrames	NumMarkers	Units	OrigDataRate	OrigDataStartFrame	OrigNumFrames
100.00	100.00	      17	9	mm	100.00	3501	      7000
Frame#	Time	front left toe			Front right toe			aft left toe			aft right toe			Arm			FL body			FR body			AL Body			AR Body			
		X1	Y1	Z1	X2	Y2	Z2	X3	Y3	Z3	X4	Y4	Z4	X5	Y5	Z5	X6	Y6	Z6	X7	Y7	Z7	X8	Y8	Z8	X9	Y9	Z9	

3501	35.000	-134.45490	18.12646	-420.41040	281.81363	21.31224	-468.95239	-120.93892	17.41553	140.78714	295.06180	27.07760	110.59702	86.17147	737.04639	-737.17212	-47.11880	594.90540	-496.28598	108.00755	600.11389	-504.79843	-7.64879	556.86035	385.80847	139.44984	551.01178	380.80756	
3502	35.010	-134.36324	17.64625	-420.36969	281.91238	21.08875	-469.03357	-120.87271	17.37913	140.74777	295.17712	27.19041	110.54797	85.58869	737.31757	-737.62842	-47.97816	595.09381	-497.19983	107.31108	600.39093	-505.37787	-8.40774	557.26538	385.20844	139.10458	551.34473	380.12360	
3503	35.020	-134.38206	17.27560	-420.50479	281.84039	20.90553	-469.18930	-120.84890	17.47680	140.69453	295.15982	27.26635	110.35828	84.61905	737.54303	-737.88739	-48.66087	595.15784	-497.57538	106.36499	600.48395	-506.22635	-8.73339	557.72333	384.61169	138.35231	552.03705	379.43680	
3504	35.030	-134.43048	16.99533	-420.59344	281.74011	20.59038	-469.54947	-120.72795	17.51360	140.57973	295.20038	27.33718	110.12774	84.26704	737.56647	-738.15485	-49.64661	595.23999	-498.19595	105.81123	600.70416	-506.85156	-9.01834	558.17792	383.96130	138.06842	552.71759	378.80978	
3505	35.040	-134.51216	16.65582	-420.69189	281.64389	20.26476	-469.98224	-120.48388	17.64609	140.44247	295.22849	27.33918	109.76310	84.17410	737.47559	-738.44653	-50.47615	595.29669	-499.04709	104.88042	600.75800	-507.77368	-9.31505	558.78687	383.27838	137.85062	553.09814	377.92410	
3506	35.050	-134.67717	16.10249	-420.92596	281.65045	19.98560	-470.24255	-120.33996	17.74153	140.34914	295.23346	27.27448	109.37022	84.20697	737.31897	-738.65393	-51.00020	594.85626	-499.55850	104.41423	600.80945	-508.33279	-9.44187	559.18225	382.40747	137.88907	553.64124	377.16727	
3507	35.060	-134.67114	15.76202	-420.95120	281.68964	19.65573	-470.28885	-120.16742	17.71357	140.30878	295.24469	27.21248	109.15443	84.29227	737.19360	-738.83942	-52.04742	594.96527	-500.52032	103.54786	600.62610	-509.23788	-9.33926	559.47247	381.83368	137.86929	554.24988	376.20862	
3508	35.070	-134.59116	15.27550	-421.09995	281.57217	19.32023	-470.51630	-119.98417	17.71177	140.22168	295.36069	27.27020	108.98246	84.62479	737.04358	-739.05115	-52.31348	594.89160	-501.30707	102.91408	600.42383	-510.23346	-9.60196	559.96729	380.91696	137.84471	554.55286	375.11060	
3509	35.080	-134.55434	14.94815	-421.20761	281.50467	18.95784	-470.77899	-119.85108	17.79289	140.21698	295.54422	27.35338	108.88435	85.04559	736.77319	-739.21832	-53.35270	595.11700	-502.88766	102.76263	600.17572	-511.01425	-9.50430	560.54517	379.98129	137.76262	555.15570	374.49475	
3510	35.090	-134.53885	14.73003	-421.26810	281.62198	18.69036	-470.97739	-119.73731	17.91281	140.07051	295.70328	27.49632	108.79880	85.56435	736.52167	-739.44214	-53.04046	594.59503	-503.00952	102.41562	599.95544	-512.03760	-9.24232	560.97577	379.26999	137.48419	555.82831	373.54385	
3511	35.100	-134.38524	14.38765	-421.44708	281.68463	18.34897	-470.87820	-119.63944	18.12192	139.81117	295.88879	27.65394	108.74237	86.13522	736.10718	-739.78351	-52.88511	594.07947	-503.63608	102.35643	599.88501	-512.76770	-9.82255	561.52679	378.42191	137.61006	556.07574	372.91211	
3512	35.110	-134.27060	14.17226	-421.62485	281.83896	18.05778	-470.80551	-119.63499	18.21273	139.62184	295.98123	27.68230	108.60376	86.11935	735.91364	-740.02832	-52.67356	593.80035	-504.71179	102.63817	599.74890	-513.63599	-9.96735	561.89905	377.72968	137.53340	556.56366	372.29807	
3513	35.120	-134.25580	13.94447	-421.80154	281.53036	17.44595	-471.14160	-119.67397	18.26034	139.40154	295.93939	27.71946	108.50871	86.56953	735.74298	-740.30774	-52.54844	593.76636	-505.56323	102.81793	599.54810	-514.41046	-10.39169	562.16803	376.75467	136.78488	556.94092	371.27042	
3514	35.130	-134.16629	13.70118	-422.03470	281.85956	16.97864	-471.32236	-119.78661	18.48499	139.07338	295.94366	27.79399	108.31583	86.50552	735.48303	-740.70392	-51.91914	593.52966	-506.55414	103.05121	599.43024	-515.26288	-10.54659	562.40082	375.94046	136.76382	557.35602	370.49429	
3515	35.140	-134.03229	13.50055	-422.31567	282.41891	16.90008	-471.03754	-119.75950	18.56160	138.84895	295.99765	27.78619	108.26974	86.58292	735.38458	-740.90796	-51.51362	593.49951	-507.38541	103.45661	599.16553	-515.99194	-10.83418	562.79529	375.09613	136.30225	557.55078	370.01105	
3516	35.150	-133.77998	13.31262	-422.52872	282.59378	16.59152	-471.19064	-119.78190	18.68953	138.73410	296.01031	27.82233	108.08894	86.52859	735.30322	-740.97723	-50.80884	593.67072	-508.14630	104.04707	599.10760	-516.70715	-10.75446	562.75818	374.10443	136.15724	557.60754	368.94647	
3517	35.160	-133.67815	13.28934	-422.74506	283.12671	16.57693	-471.05713	-119.72972	18.70810	138.60625	296.00473	27.86438	107.89829	86.11601	735.13892	-740.89502	-51.05530	594.31128	-509.87775	104.72688	599.22778	-517.28748	-11.13397	562.97186	373.41779	136.17439	557.61768	368.62268	
